<?xml version="1.0" encoding="utf-8"?>
<!-- Generator: Adobe Illustrator 27.5.0, SVG Export Plug-In . SVG Version: 6.00 Build 0)  -->
<svg version="1.1" xmlns="http://www.w3.org/2000/svg" xmlns:xlink="http://www.w3.org/1999/xlink" x="0px" y="0px"
	 viewBox="0 0 500 500" style="enable-background:new 0 0 500 500;" xml:space="preserve">
<g id="BACKGROUND">
	<rect style="fill:#FFFFFF;" width="500" height="500"/>
</g>
<g id="OBJECTS">
	<g>
		<g>
			<linearGradient id="SVGID_1_" gradientUnits="userSpaceOnUse" x1="250" y1="431.1237" x2="250" y2="-160.9537">
				<stop  offset="0" style="stop-color:#FFFFFF"/>
				<stop  offset="0.247" style="stop-color:#FBFDFF"/>
				<stop  offset="0.4854" style="stop-color:#F0F7FF"/>
				<stop  offset="0.7204" style="stop-color:#DCEDFF"/>
				<stop  offset="0.9519" style="stop-color:#C1DFFF"/>
				<stop  offset="0.9814" style="stop-color:#BDDDFF"/>
			</linearGradient>
			<circle style="fill:url(#SVGID_1_);" cx="250" cy="253.603" r="195.824"/>
			<ellipse style="fill:#BDDDFF;" cx="250.069" cy="428.452" rx="158.122" ry="17.167"/>
		</g>
		<g>
			<g>
				<path style="fill:none;stroke:#091A50;stroke-width:1.1425;stroke-miterlimit:10;" d="M321.029,337.635
					c-1.98-68.11,22.518-133.911,59.999-179.108"/>
				<path style="fill:#0E336A;" d="M343.852,202.581c3.562-35.436-23.584-15.799,29.797-46.004
					c8.469-4.773-2.009,2.247-13.425,28.44c-4.132,9.86-18.994,37.674-26.579,63.513c-11.162,37.152,0.099,13.706-4.366-22.82
					c-1.415-16.782-5.523-32.529,6.403-45.203C341.343,188.055,343.937,197.7,343.852,202.581z"/>
				<g>
					<path style="fill:#0E3E86;" d="M401.612,149.896c1.967-4.468,2.291-11.136,2.451-17.179c11.418-5.507,22.28-6.672,27.583-5.566
						c-18.931,11.172-24.089,24.911-34.195,40c-28.505,40.572-57.201,59.677-70.703,106.667
						c10.217-40.479,14.299-46.986,30.522-85.643c8.793-21.222,23.14-42.965,43.589-53.832
						C402.298,139.138,402.594,145.803,401.612,149.896z"/>
				</g>
			</g>
		</g>
		<g>
			<g>
				<path style="fill:none;stroke:#091A50;stroke-width:0.8047;stroke-miterlimit:10;" d="M137.948,413.027
					c-4.246-68.864-36.474-84.917-56.836-102.131"/>
				<path style="fill:#0E336A;" d="M94.895,330.5c-2.681-0.439-8.167,0.28-13.621,3.232c-1.105-4.755-0.555-11.805-2.812-19.655
					c12.023,7.927,18.18,7.277,39.393,31.651c-11.66-11.939-31.497,0.079-35.9-9.839C85.322,333.465,91.15,330.32,94.895,330.5z"/>
				<g>
					<path style="fill:#0E3E86;" d="M79.064,299.943c-2.481-0.399-5.712,0.704-9.268,2.137c-2.297-5.55-2.717-11.413-2.208-14.475
						c4.093,5.097,8.582,6.876,13.353,8.807c25.637,10.259,23.038,31.09,38.704,51.368c-28.536-33.122-40.151-25.32-49.192-44.243
						C73.252,301.517,76.867,300.101,79.064,299.943z"/>
				</g>
			</g>
			<g>
				<g>
					<path style="fill:none;stroke:#091A50;stroke-miterlimit:10;" d="M137.948,413.027c1.733-59.613-19.709-117.205-52.514-156.764
						"/>
					<path style="fill:#0E336A;" d="M117.973,294.822c-3.117-31.015,20.642-13.828-26.08-40.264
						c-7.413-4.178,1.759,1.966,11.75,24.892c3.616,8.63,16.625,32.974,23.263,55.59c9.77,32.517-0.087,11.996,3.821-19.973
						c1.239-14.688,4.834-28.471-5.604-39.564C120.169,282.108,117.898,290.55,117.973,294.822z"/>
					<g>
						<path style="fill:#0E3E86;" d="M67.419,248.709c-1.722-3.911-2.005-9.747-2.145-15.036c-9.993-4.82-19.5-5.84-24.142-4.871
							c16.569,9.778,21.084,21.803,29.929,35.01c24.949,35.51,50.065,52.232,61.882,93.36
							c-8.942-35.429-12.515-41.125-26.714-74.959c-7.696-18.575-20.253-37.605-38.151-47.117
							C66.818,239.294,66.559,245.127,67.419,248.709z"/>
					</g>
				</g>
			</g>
		</g>
		<path style="fill:#0485A4;" d="M374.45,262.771v144.1c0,3.62-1.51,6.89-3.94,9.2c-0.03,0.04-0.07,0.07-0.1,0.1
			c-2.27,2.13-5.33,3.43-8.69,3.43H138.28c-3.36,0-6.42-1.3-8.69-3.43c-0.03-0.03-0.07-0.06-0.1-0.1c-2.43-2.31-3.94-5.58-3.94-9.2
			v-144.1c0-8.03,3.53-15.65,9.65-20.85l100.65-85.45c8.16-6.93,20.14-6.93,28.3,0l100.65,85.45
			C370.92,247.121,374.45,254.741,374.45,262.771z"/>
		<g>
			<g>
				<path style="fill:#091A50;" d="M213.943,69.471c-4.444,2.174-6.638,7.489-5.007,12.16c1.375,3.938,4.918,6.392,8.74,6.64
					c1.976,0.129,3.685,1.429,4.485,3.24l23.46,53.132c3.704,8.388,1.231,18.196-5.719,23.602c0.834,0.855,1.613,1.76,2.339,2.708
					c8.057-6.31,11.158-17.516,6.84-27.296L225.419,90.07c-0.813-1.842-0.555-3.984,0.687-5.569
					c2.187-2.79,2.809-6.664,1.279-10.129C225.123,69.247,219.022,66.986,213.943,69.471z M220.878,84.195
					c-3.207,1.416-6.968-0.041-8.384-3.248c-1.416-3.207,0.041-6.968,3.248-8.384c3.207-1.416,6.967,0.041,8.383,3.248
					C225.542,79.019,224.085,82.78,220.878,84.195z"/>
				<path style="fill:none;stroke:#091A50;stroke-width:2;stroke-miterlimit:10;" d="M216.896,75.411l-3.742-7.859
					c-2.316-4.805-5.134-20.088,1.521-29.99c6.62-9.849,21.256-11.549,37.135,2.956c27.794,25.388,49.336,60.232,71.294,63.143
					c18.219,2.415,26.701-11.936,25.504-22.179c-1.06-9.071-9.827-18.498-25.894-15.905c-25.518,4.119-34.901,38.993-10.03,58.337
					c23.724,18.452,88.489,10.428,88.489-121.679"/>
			</g>
			<g>
				<g>
					<g>
						<g style="opacity:0.5;">
							
								<rect x="169.459" y="158.196" transform="matrix(0.9839 -0.1787 0.1787 0.9839 -40.814 49.339)" style="fill:#808080;" width="168.085" height="186.11"/>
						</g>
						<g>
							
								<rect x="166.253" y="150.715" transform="matrix(0.9839 -0.1787 0.1787 0.9839 -39.5288 48.6456)" style="fill:#FFFFFF;" width="168.085" height="186.11"/>
						</g>
					</g>
					<g>
						<g>
							<path style="fill:#FFFFFF;" d="M305.16,252.337l-101.629,18.456c-2.03,0.369-3.975-0.978-4.344-3.009l-1.906-10.494
								c-0.369-2.03,0.978-3.975,3.009-4.344l101.629-18.456c2.03-0.369,3.975,0.978,4.344,3.009l1.906,10.494
								C308.537,250.023,307.19,251.968,305.16,252.337z"/>
						</g>
						<g>
							<path style="fill:#E7ECF3;" d="M304.16,251.337l-101.629,18.456c-2.03,0.369-3.975-0.978-4.344-3.009l-1.906-10.494
								c-0.369-2.03,0.978-3.975,3.009-4.344l101.629-18.456c2.03-0.369,3.975,0.978,4.344,3.009l1.906,10.494
								C307.537,249.023,306.19,250.968,304.16,251.337z"/>
						</g>
					</g>
					<g>
						<g>
							<path style="fill:#FFFFFF;" d="M310.031,279.16l-101.629,18.456c-2.03,0.369-3.975-0.978-4.344-3.009l-1.906-10.494
								c-0.369-2.03,0.978-3.975,3.009-4.344l101.629-18.456c2.03-0.369,3.975,0.978,4.344,3.009l1.906,10.494
								C313.408,276.847,312.061,278.791,310.031,279.16z"/>
						</g>
						<g>
							<path style="fill:#E7ECF3;" d="M309.031,278.16l-101.629,18.456c-2.03,0.369-3.975-0.978-4.344-3.009l-1.906-10.494
								c-0.369-2.03,0.978-3.975,3.009-4.344l101.629-18.456c2.03-0.369,3.975,0.978,4.344,3.009l1.906,10.494
								C312.408,275.847,311.061,277.791,309.031,278.16z"/>
						</g>
					</g>
					<g>
						<g style="opacity:0.5;">
							<path style="fill:#000007;" d="M314.902,305.983L213.273,324.44c-2.03,0.369-3.975-0.978-4.344-3.009l-1.906-10.494
								c-0.369-2.03,0.978-3.975,3.009-4.344l101.629-18.456c2.03-0.369,3.975,0.978,4.344,3.009l1.906,10.494
								C318.279,303.67,316.932,305.615,314.902,305.983z"/>
						</g>
						<g>
							<path style="fill:#0E3E86;" d="M313.902,304.983L212.273,323.44c-2.03,0.369-3.975-0.978-4.344-3.009l-1.906-10.494
								c-0.369-2.03,0.978-3.975,3.009-4.344l101.629-18.456c2.03-0.369,3.975,0.978,4.344,3.009l1.906,10.494
								C317.279,302.67,315.932,304.615,313.902,304.983z"/>
						</g>
					</g>
					<g>
						
							<ellipse transform="matrix(0.3467 -0.938 0.938 0.3467 -35.1039 363.8284)" style="fill:#0E3E86;" cx="243.639" cy="207.115" rx="29.819" ry="29.819"/>
						
							<ellipse transform="matrix(0.307 -0.9517 0.9517 0.307 -28.2659 375.4135)" style="fill:#E7ECF3;" cx="243.639" cy="207.115" rx="27.062" ry="27.062"/>
						<g>
							
								<ellipse transform="matrix(0.9839 -0.1787 0.1787 0.9839 -31.9634 46.5576)" style="fill:#C6141C;" cx="242.477" cy="200.72" rx="12.219" ry="14.736"/>
							<path style="fill:#9F0610;" d="M245.494,217.33c-7.047,1.28-13.22,3.957-17.749,7.352c5.29,4.346,12.542,6.424,20.004,5.069
								c7.462-1.355,13.52-5.85,16.945-11.779C259.261,216.385,252.541,216.05,245.494,217.33z"/>
						</g>
					</g>
				</g>
				<g>
					
						<text transform="matrix(0.9839 -0.1787 0.1787 0.9839 204.973 265.3116)" style="fill:#091A50; font-family:'Antonio-Bold'; font-size:12px;">username</text>
					
						<text transform="matrix(0.9839 -0.1787 0.1787 0.9839 249.8439 312.1069)" style="fill:#F2FFFF; font-family:'Antonio-Bold'; font-size:12px;">Login</text>
					<g>
						<path style="fill:#091A50;" d="M214.982,286.022c0.271,1.493-0.719,2.922-2.212,3.194c-1.493,0.271-2.923-0.719-3.194-2.212
							c-0.271-1.493,0.719-2.923,2.212-3.194C213.281,283.539,214.711,284.53,214.982,286.022z"/>
						<path style="fill:#091A50;" d="M224.17,284.354c0.271,1.493-0.719,2.923-2.212,3.194c-1.493,0.271-2.923-0.719-3.194-2.212
							c-0.271-1.493,0.719-2.923,2.212-3.194C222.469,281.871,223.899,282.861,224.17,284.354z"/>
						<path style="fill:#091A50;" d="M233.358,282.685c0.271,1.493-0.719,2.923-2.212,3.194c-1.493,0.271-2.923-0.719-3.194-2.212
							c-0.271-1.493,0.719-2.923,2.212-3.194C231.657,280.202,233.087,281.192,233.358,282.685z"/>
						<path style="fill:#091A50;" d="M242.546,281.017c0.271,1.493-0.719,2.923-2.212,3.194c-1.493,0.271-2.923-0.719-3.194-2.212
							c-0.271-1.493,0.719-2.923,2.212-3.194C240.845,278.533,242.275,279.524,242.546,281.017z"/>
						<path style="fill:#091A50;" d="M251.735,279.348c0.271,1.493-0.719,2.923-2.212,3.194c-1.493,0.271-2.923-0.719-3.194-2.212
							c-0.271-1.493,0.719-2.923,2.212-3.194C250.034,276.865,251.464,277.855,251.735,279.348z"/>
						<path style="fill:#091A50;" d="M260.923,277.679c0.271,1.493-0.719,2.923-2.212,3.194c-1.493,0.271-2.923-0.719-3.194-2.212
							c-0.271-1.493,0.719-2.923,2.212-3.194C259.222,275.196,260.652,276.187,260.923,277.679z"/>
						<path style="fill:#091A50;" d="M270.111,276.011c0.271,1.493-0.719,2.923-2.212,3.194c-1.493,0.271-2.923-0.719-3.194-2.212
							c-0.271-1.493,0.719-2.923,2.212-3.194C268.41,273.528,269.84,274.518,270.111,276.011z"/>
						<path style="fill:#091A50;" d="M279.299,274.342c0.271,1.493-0.719,2.923-2.212,3.194c-1.493,0.271-2.922-0.719-3.194-2.212
							c-0.271-1.493,0.719-2.922,2.212-3.194C277.598,271.859,279.028,272.849,279.299,274.342z"/>
					</g>
				</g>
			</g>
			<g>
				<path style="fill:#091A50;" d="M242.032,168.912c1.27,1.789,1.886,3.532,1.378,3.893c-0.509,0.361-1.95-0.797-3.22-2.586
					c-1.269-1.789-1.886-3.532-1.378-3.893C239.321,165.965,240.763,167.123,242.032,168.912z"/>
				<path style="fill:#091A50;" d="M236.358,170.423c-8.787,4.131-19.061,1.06-24.281-6.68c-1.153-1.709-1.28-3.876-0.615-5.827
					c0.606-1.779,0.16-3.754-1.163-5.1l-10.77-10.963c-0.496-0.505-1.321,0.056-1.035,0.702l3.032,6.867l5.431,12.301
					c5.037,11.407,18.226,17.12,29.778,12.424c2.029-0.825,3.868-1.91,5.506-3.194c-0.727-0.947-1.505-1.853-2.339-2.708
					C238.824,169.084,237.644,169.819,236.358,170.423z"/>
			</g>
		</g>
		<g>
			<path style="fill:#BDDDFF;" d="M125.55,273.086l111.909,47.288c8.018,3.388,17.065,3.388,25.083,0l111.909-47.288v91.637h-248.9
				V273.086z"/>
			<g>
				<g>
					<path style="fill:#6ABFD2;" d="M235.85,335.276l-106.26,90.21c-0.03-0.03-0.07-0.06-0.1-0.1c-2.43-2.31-3.94-5.58-3.94-9.2
						v-144.1l106.72,61.14L235.85,335.276z"/>
					<path style="fill:#6ABFD2;" d="M374.45,272.086v144.1c0,3.62-1.51,6.89-3.94,9.2c-0.03,0.04-0.07,0.07-0.1,0.1l-106.26-90.21
						l3.58-2.05L374.45,272.086z"/>
					<path style="fill:#0485A4;" d="M374.45,273.086v144.1c0,3.62-1.51,6.89-3.94,9.2c-0.03,0.04-0.07,0.07-0.1,0.1l-106.26-90.21
						l3.58-2.05L374.45,273.086z"/>
					<path style="fill:#0485A4;" d="M235.85,336.276l-106.26,90.21c-0.03-0.03-0.07-0.06-0.1-0.1c-2.43-2.31-3.94-5.58-3.94-9.2
						v-144.1l106.72,61.14L235.85,336.276z"/>
					<path style="fill:#BDDDFF;" d="M235.85,336.276l-106.26,90.21c-0.03-0.03-0.07-0.06-0.1-0.1l102.78-92.16L235.85,336.276z"/>
				</g>
				<g>
					<path style="fill:#BDDDFF;" d="M370.51,426.386c-0.03,0.04-0.07,0.07-0.1,0.1l-106.26-90.21l3.58-2.05L370.51,426.386z"/>
				</g>
				<path style="fill:#6ABFD2;" d="M370.41,425.486c-2.27,2.13-5.33,3.43-8.69,3.43H138.28c-3.36,0-6.42-1.3-8.69-3.43l106.26-90.21
					c8.16-6.93,20.14-6.93,28.3,0L370.41,425.486z"/>
				<path style="fill:#0694B4;" d="M370.41,426.486c-2.27,2.13-5.33,3.43-8.69,3.43H138.28c-3.36,0-6.42-1.3-8.69-3.43l106.26-90.21
					c8.16-6.93,20.14-6.93,28.3,0L370.41,426.486z"/>
			</g>
		</g>
		<g>
			<g>
				<path style="fill:none;stroke:#091A50;stroke-width:1.0676;stroke-miterlimit:10;stroke-dasharray:3.2027,3.2027;" d="
					M191.473,278.193c-50.781-24.216-128.728-92.55-127.839-123.4c0.533-18.51,54.862-5.966,92.446,6.281"/>
				<path style="fill:none;stroke:#091A50;stroke-width:1.0676;stroke-miterlimit:10;stroke-dasharray:3.2027,3.2027;" d="
					M186.773,274.182c-47.223-30.579-115.68-108.418-110.809-138.895c1.931-12.081,25.392-7.685,51.382,1.593"/>
			</g>
			<g>
				<path style="fill:none;stroke:#091A50;stroke-width:1.0676;stroke-miterlimit:10;stroke-dasharray:3.2027,3.2027;" d="
					M318.014,355.033c50.78-24.216,128.728-92.55,127.839-123.401c-0.457-15.855-40.38-8.926-75.444,1.084"/>
				<path style="fill:none;stroke:#091A50;stroke-width:1.0676;stroke-miterlimit:10;stroke-dasharray:3.2027,3.2027;" d="
					M322.714,351.022c47.223-30.579,115.68-108.418,110.809-138.895c-1.931-12.081-25.391-7.685-51.381,1.593"/>
			</g>
		</g>
	</g>
</g>
</svg>
